<?xml version="1.0" encoding="UTF-8" standalone="no"?>
<svg
   xmlns:dc="http://purl.org/dc/elements/1.1/"
   xmlns:cc="http://creativecommons.org/ns#"
   xmlns:rdf="http://www.w3.org/1999/02/22-rdf-syntax-ns#"
   xmlns:svg="http://www.w3.org/2000/svg"
   xmlns="http://www.w3.org/2000/svg"
   xmlns:sodipodi="http://sodipodi.sourceforge.net/DTD/sodipodi-0.dtd"
   xmlns:inkscape="http://www.inkscape.org/namespaces/inkscape"
   inkscape:export-ydpi="96"
   inkscape:export-xdpi="96"
   inkscape:export-filename="/Users/nbruggemann/Promotion/src/pyicon_02/doc/_static/logo.png"
   sodipodi:docname="logo.svg"
   inkscape:version="1.0beta2 (2b71d25, 2019-12-03)"
   id="svg8"
   version="1.1"
   viewBox="0 0 327.39841 113.26666"
   height="113.26667mm"
   width="327.39841mm">
  <defs
     id="defs2" />
  <sodipodi:namedview
     inkscape:window-maximized="1"
     inkscape:window-y="23"
     inkscape:window-x="0"
     inkscape:window-height="702"
     inkscape:window-width="1280"
     showgrid="false"
     inkscape:document-rotation="0"
     inkscape:current-layer="layer1"
     inkscape:document-units="mm"
     inkscape:cy="216.58008"
     inkscape:cx="230.8756"
     inkscape:zoom="0.96102398"
     inkscape:pageshadow="2"
     inkscape:pageopacity="0.0"
     borderopacity="1.0"
     bordercolor="#666666"
     pagecolor="#ffffff"
     id="base" />
  <metadata
     id="metadata5">
    <rdf:RDF>
      <cc:Work
         rdf:about="">
        <dc:format>image/svg+xml</dc:format>
        <dc:type
           rdf:resource="http://purl.org/dc/dcmitype/StillImage" />
        <dc:title></dc:title>
      </cc:Work>
    </rdf:RDF>
  </metadata>
  <g
     transform="translate(-0.94373888,-164.1166)"
     id="layer1"
     inkscape:groupmode="layer"
     inkscape:label="Layer 1">
    <path
       id="path999"
       style="fill:#ff961e;fill-opacity:1;stroke:none;stroke-width:0.264583px;stroke-linecap:butt;stroke-linejoin:miter;stroke-opacity:1"
       d="m -61.653675,252.70916 c -4.58406,-14.14149 -5.19271,-10.05599 -4.58406,-14.14149 2.930646,-4.4268 12.898893,-9.32212 12.898893,-9.32212 5.65386,-3.6436 13.166541,-8.51664 15.943637,-11.58296 3.947621,-5.05995 -8.371119,-9.87381 -4.640373,-15.09116 1.766731,-2.62435 14.618126,-6.32138 15.322792,-9.49669 0.1338,-5.236 -3.388967,-6.39578 -6.689284,-10.10432 -1.91337,-2.63147 -4.262517,-3.85073 -5.987457,-6.62557 -2.09582,0.10329 -2.695521,0.0421 -4.725407,-0.71979 -1.24375,-0.71968 -2.941201,-2.30682 -2.972431,-3.5913 -0.0718,-1.22397 -0.48057,-1.92467 -0.61896,-3.14548 0.0932,-0.71024 -0.536126,-2.13576 -0.955026,-2.80008 -0.61476,-1.21517 -0.71158,-1.53761 -0.95522,-2.85052 -0.0387,-1.26279 0.12836,-2.63477 1.21663,-2.94784 0.758096,-1.52665 1.460457,0.0856 2.561027,-0.0349 1.94318,1.29506 2.74658,1.6622 2.74658,1.6622 0.512356,0.57559 1.498577,0.72267 2.017207,1.31505 0.55771,0.70643 2.20032,0.0179 2.8154,0.52816 2.650387,2.19872 1.096736,0.4665 3.750257,3.57934 0.8913,1.04559 -0.73598,3.9355 0.11643,5.19413 0.63049,0.81409 2.193356,2.79209 2.458516,3.79288 1.678281,2.79299 4.027421,4.01225 5.940787,6.64372 3.300331,3.70854 9.370118,6.04387 7.081148,10.88802 -0.70467,3.17531 -12.380525,7.65604 -14.147254,10.28039 -3.730748,5.21735 8.078926,10.58048 4.131309,15.64043 -2.777101,3.06632 -18.569368,11.81739 -18.569368,11.81739 -5.397658,3.77044 -7.871682,5.19005 -10.802333,9.61685 -0.608639,4.0855 3.67982,6.15816 3.48552,10.32011 4.870598,11.43767 9.762617,10.69432 2.548412,15.4659"
       inkscape:connector-curvature="0"
       sodipodi:nodetypes="ccsccccccccccccccssccccccsccc" />
    <rect
       inkscape:export-ydpi="96"
       inkscape:export-xdpi="96"
       y="164.11661"
       x="0.94373888"
       height="113.26667"
       width="327.39841"
       id="rect988"
       style="opacity:1;fill:#ffffff;fill-opacity:1;stroke:none;stroke-width:1.39652;stroke-miterlimit:4;stroke-dasharray:none;stroke-opacity:1" />
    <path
       sodipodi:nodetypes="cc"
       inkscape:connector-curvature="0"
       id="path837"
       d="M 25.019821,189.3257 H 75.881469"
       style="fill:none;stroke:#1496ff;stroke-width:1.5;stroke-linecap:butt;stroke-linejoin:miter;stroke-miterlimit:4;stroke-dasharray:none;stroke-opacity:1" />
    <path
       sodipodi:nodetypes="cc"
       style="fill:none;stroke:#1496ff;stroke-width:1.5;stroke-linecap:butt;stroke-linejoin:miter;stroke-miterlimit:4;stroke-dasharray:none;stroke-opacity:1"
       d="M 26.304206,253.3837 H 74.853959"
       id="path839"
       inkscape:connector-curvature="0" />
    <path
       sodipodi:nodetypes="cc"
       inkscape:connector-curvature="0"
       id="path853"
       d="m 9.327078,213.78526 c 8.878723,15.37839 17.757445,30.75679 26.636167,46.13519"
       style="fill:none;stroke:#1496ff;stroke-width:1.5;stroke-linecap:butt;stroke-linejoin:miter;stroke-miterlimit:4;stroke-dasharray:none;stroke-opacity:1" />
    <path
       sodipodi:nodetypes="cc"
       style="fill:none;stroke:#1496ff;stroke-width:1.5;stroke-linecap:butt;stroke-linejoin:miter;stroke-miterlimit:4;stroke-dasharray:none;stroke-opacity:1"
       d="m 29.039181,183.76957 43.157068,74.75022"
       id="path855"
       inkscape:connector-curvature="0" />
    <path
       sodipodi:nodetypes="cc"
       inkscape:connector-curvature="0"
       id="path857"
       d="m 65.301987,182.42054 26.080022,45.1719"
       style="fill:none;stroke:#1496ff;stroke-width:1.5;stroke-linecap:butt;stroke-linejoin:miter;stroke-miterlimit:4;stroke-dasharray:none;stroke-opacity:1" />
    <path
       sodipodi:nodetypes="cc"
       style="fill:none;stroke:#1496ff;stroke-width:1.5;stroke-linecap:butt;stroke-linejoin:miter;stroke-miterlimit:4;stroke-dasharray:none;stroke-opacity:1"
       d="M 91.556189,214.91092 65.827075,259.47505"
       id="path859"
       inkscape:connector-curvature="0" />
    <path
       sodipodi:nodetypes="cc"
       inkscape:connector-curvature="0"
       id="path861"
       d="M 72.464449,183.82072 28.956486,259.17871"
       style="fill:none;stroke:#1496ff;stroke-width:1.5;stroke-linecap:butt;stroke-linejoin:miter;stroke-miterlimit:4;stroke-dasharray:none;stroke-opacity:1" />
    <path
       sodipodi:nodetypes="cc"
       style="fill:none;stroke:#1496ff;stroke-width:1.5;stroke-linecap:butt;stroke-linejoin:miter;stroke-miterlimit:4;stroke-dasharray:none;stroke-opacity:1"
       d="M 34.973499,184.59891 10.010398,227.83624"
       id="path863"
       inkscape:connector-curvature="0" />
    <path
       sodipodi:nodetypes="cc"
       inkscape:connector-curvature="0"
       id="path865"
       d="m 8.836569,221.40471 h 84.25566"
       style="fill:none;stroke:#1496ff;stroke-width:1.5;stroke-linecap:butt;stroke-linejoin:miter;stroke-miterlimit:4;stroke-dasharray:none;stroke-opacity:1" />
    <path
       sodipodi:nodetypes="csscccccccccccccsscccccscccc"
       inkscape:connector-curvature="0"
       d="m 30.070603,238.0385 c 0.845099,-2.63919 11.239943,-9.26088 11.311393,-9.32212 3.142026,-2.69317 9.824584,-5.76619 13.17458,-8.23157 2.094952,-1.54176 1.181557,-3.35138 1.181557,-3.35138 -3.172726,-2.9366 -10.487786,-9.87382 -6.757039,-15.09117 1.76673,-2.62435 16.65423,-6.3092 19.556125,-8.96752 -0.573553,-6.77784 -4.451167,-7.43532 -6.326742,-10.37989 -2.09582,0.10329 -2.69552,0.0421 -4.725407,-0.71979 -1.24375,-0.71968 -2.9412,-2.30682 -2.97243,-3.5913 -0.0718,-1.22397 -0.48057,-1.92467 -0.61896,-3.14548 0.0932,-0.71024 -0.536127,-2.13576 -0.955027,-2.80008 -0.61476,-1.21517 -0.71158,-1.53761 -0.95522,-2.85052 -0.0387,-1.26279 0.12836,-2.63477 1.21663,-2.94784 0.758097,-1.52665 1.460457,0.0856 2.561027,-0.0349 1.94318,1.29506 2.74658,1.6622 2.74658,1.6622 0.512357,0.57559 1.498577,0.72267 2.017207,1.31505 0.55771,0.70643 2.20032,0.0179 2.8154,0.52816 2.650387,2.19872 1.096737,0.4665 3.750257,3.57934 0.8913,1.04559 -0.73598,3.9355 0.11643,5.19413 1.755788,3.50036 4.904866,7.18105 5.75347,8.31994 0,0 2.921035,2.12194 1.789481,6.65468 -2.511141,4.42114 -16.613857,8.71437 -18.380587,11.33872 -3.730747,5.21735 13.899759,9.52215 9.952142,14.5821 -2.7771,3.06632 -18.569367,12.34656 -18.569367,12.34656 -5.397658,3.77044 -9.915317,7.39945 -9.743999,10.14602 0.831469,2.91568 1.889802,5.56151 5.602185,14.02427 1.953103,4.48057 -0.626586,14.40757 -5.25146,3.82139 -4.308983,-8.45552 -8.896876,-17.9935 -8.288226,-22.079 z"
       style="fill:#ff961e;fill-opacity:1;stroke:none;stroke-width:0.264583px;stroke-linecap:butt;stroke-linejoin:miter;stroke-opacity:1"
       id="path878" />
    <g
       transform="translate(89.958338,153.45837)"
       id="g932"
       style="opacity:1;stroke:#1496ff;stroke-opacity:1">
      <path
         sodipodi:nodetypes="cc"
         inkscape:connector-curvature="0"
         id="path914"
         d="M 56.769822,189.3257 H 107.63147"
         style="fill:none;stroke:#1496ff;stroke-width:0.264583px;stroke-linecap:butt;stroke-linejoin:miter;stroke-opacity:1" />
      <path
         sodipodi:nodetypes="cc"
         style="fill:none;stroke:#1496ff;stroke-width:0.264583px;stroke-linecap:butt;stroke-linejoin:miter;stroke-opacity:1"
         d="M 58.054207,253.3837 H 106.60396"
         id="path916"
         inkscape:connector-curvature="0" />
      <path
         sodipodi:nodetypes="cc"
         inkscape:connector-curvature="0"
         id="path918"
         d="m 41.077079,213.78526 c 8.878723,15.37839 17.757445,30.75679 26.636167,46.13519"
         style="fill:none;stroke:#1496ff;stroke-width:0.264583px;stroke-linecap:butt;stroke-linejoin:miter;stroke-opacity:1" />
      <path
         sodipodi:nodetypes="cc"
         style="fill:none;stroke:#1496ff;stroke-width:0.264583px;stroke-linecap:butt;stroke-linejoin:miter;stroke-opacity:1"
         d="m 60.789182,183.76957 43.157068,74.75022"
         id="path920"
         inkscape:connector-curvature="0" />
      <path
         sodipodi:nodetypes="cc"
         inkscape:connector-curvature="0"
         id="path922"
         d="m 97.051988,182.42054 26.080022,45.1719"
         style="fill:none;stroke:#1496ff;stroke-width:0.264583px;stroke-linecap:butt;stroke-linejoin:miter;stroke-opacity:1" />
      <path
         sodipodi:nodetypes="cc"
         style="fill:none;stroke:#1496ff;stroke-width:0.264583px;stroke-linecap:butt;stroke-linejoin:miter;stroke-opacity:1"
         d="M 123.30619,214.91092 97.577076,259.47505"
         id="path924"
         inkscape:connector-curvature="0" />
      <path
         sodipodi:nodetypes="cc"
         inkscape:connector-curvature="0"
         id="path926"
         d="M 104.21445,183.82072 60.706487,259.17871"
         style="fill:none;stroke:#1496ff;stroke-width:0.264583px;stroke-linecap:butt;stroke-linejoin:miter;stroke-opacity:1" />
      <path
         sodipodi:nodetypes="cc"
         style="fill:none;stroke:#1496ff;stroke-width:0.264583px;stroke-linecap:butt;stroke-linejoin:miter;stroke-opacity:1"
         d="M 66.7235,184.59891 41.760399,227.83624"
         id="path928"
         inkscape:connector-curvature="0" />
      <path
         sodipodi:nodetypes="cc"
         inkscape:connector-curvature="0"
         id="path930"
         d="m 40.58657,221.40471 h 84.25566"
         style="fill:none;stroke:#1496ff;stroke-width:0.264583px;stroke-linecap:butt;stroke-linejoin:miter;stroke-opacity:1" />
    </g>
    <path
       id="path934"
       style="fill:#ff961e;fill-opacity:1;stroke:#000000;stroke-width:0.264583px;stroke-linecap:butt;stroke-linejoin:miter;stroke-opacity:1"
       d="m 161.43183,421.17443 c -4.56534,-3.60494 -9.88015,-8.67329 -9.8313,-15.00684 0.1943,-4.16195 4.86146,-7.41016 5.47011,-11.49566 2.93065,-4.4268 3.26266,-6.26255 6.5489,-11.96795 3.35715,-5.82851 3.64154,-7.98747 6.41864,-11.05379 3.94762,-5.05995 6.44555,-10.40298 10.1763,-15.62033 1.76673,-2.62435 4.42664,-5.53768 5.13131,-8.71299 2.28897,-4.84415 1.51085,-7.17948 -1.78947,-10.88802 -1.91337,-2.63147 -4.26252,-3.85073 -5.98746,-6.62557 -2.09582,0.10329 -2.69552,0.0421 -4.72541,-0.71979 -1.24375,-0.71968 -2.9412,-2.30682 -2.97243,-3.5913 -0.0718,-1.22397 -0.48057,-1.92467 -0.61896,-3.14548 0.0932,-0.71024 -0.53613,-2.13576 -0.95503,-2.80008 -0.61476,-1.21517 -0.71158,-1.53761 -0.95522,-2.85052 -0.0387,-1.26279 0.12836,-2.63477 1.21663,-2.94784 0.7581,-1.52665 1.46046,0.0856 2.56103,-0.0349 1.94318,1.29506 2.74658,1.6622 2.74658,1.6622 0.51236,0.57559 1.49858,0.72267 2.01721,1.31505 0.55771,0.70643 2.20032,0.0179 2.8154,0.52816 2.65039,2.19872 1.09674,0.4665 3.75026,3.57934 0.8913,1.04559 -0.73598,3.9355 0.11643,5.19413 0.63049,0.81409 2.19336,2.79209 2.45852,3.79288 1.67828,2.79299 4.02742,4.01225 5.94079,6.64372 3.30033,3.70854 4.07845,6.04387 1.78948,10.88802 -0.70467,3.17531 -3.36459,6.08864 -5.13132,8.71299 -3.73075,5.21735 -6.22868,10.56038 -10.1763,15.62033 -2.7771,3.06632 -3.06149,5.22528 -6.41864,11.05379 -3.28624,5.7054 -3.61825,7.54115 -6.5489,11.96795 -0.60864,4.0855 -5.27581,7.33371 -5.47011,11.49566 9.7412,22.87533 -2.14238,11.4019 2.42296,15.00684"
       inkscape:connector-curvature="0"
       sodipodi:nodetypes="cccsccccccccccccccssccccccsccc" />
    <text
       id="text956"
       y="235.21356"
       x="130.9839"
       style="font-style:normal;font-weight:normal;font-size:52.9167px;line-height:1.25;font-family:sans-serif;fill:#000000;fill-opacity:1;stroke:none;stroke-width:0.264583"
       xml:space="preserve"><tspan
         style="font-style:normal;font-variant:normal;font-weight:normal;font-stretch:normal;font-family:Ayuthaya;-inkscape-font-specification:Ayuthaya;stroke-width:0.264583"
         y="235.21356"
         x="130.9839"
         id="tspan954"
         sodipodi:role="line"><tspan
           id="tspan958"
           style="font-style:normal;font-variant:normal;font-weight:normal;font-stretch:normal;font-family:Ayuthaya;-inkscape-font-specification:Ayuthaya;fill:#ff961e;fill-opacity:1">py</tspan><tspan
           id="tspan968"
           style="font-style:normal;font-variant:normal;font-weight:normal;font-stretch:normal;font-family:Ayuthaya;-inkscape-font-specification:Ayuthaya;fill:#1496ff;fill-opacity:1">icon</tspan></tspan></text>
    <path
       inkscape:connector-curvature="0"
       id="path1001"
       d="m 67.090739,193.13804 -6.95425,12.09864 m -6.682133,11.60388 -14.614784,25.17195"
       style="fill:none;stroke:#1496ff;stroke-width:1.5;stroke-linecap:butt;stroke-linejoin:miter;stroke-miterlimit:4;stroke-dasharray:none;stroke-opacity:1"
       sodipodi:nodetypes="cccc" />
  </g>
</svg>
