<?xml version="1.0" encoding="UTF-8" standalone="no"?>
<svg
   xmlns:dc="http://purl.org/dc/elements/1.1/"
   xmlns:cc="http://creativecommons.org/ns#"
   xmlns:rdf="http://www.w3.org/1999/02/22-rdf-syntax-ns#"
   xmlns:svg="http://www.w3.org/2000/svg"
   xmlns="http://www.w3.org/2000/svg"
   xmlns:sodipodi="http://sodipodi.sourceforge.net/DTD/sodipodi-0.dtd"
   xmlns:inkscape="http://www.inkscape.org/namespaces/inkscape"
   width="92.003799mm"
   height="98.851295mm"
   viewBox="0 0 92.003801 98.851289"
   version="1.1"
   id="svg8"
   inkscape:version="1.0beta2 (2b71d25, 2019-12-03)"
   sodipodi:docname="logo4.svg"
   inkscape:export-filename="/Users/nbruggemann/Promotion/src/pyicon_02/doc/_static/logo4.png"
   inkscape:export-xdpi="96"
   inkscape:export-ydpi="96">
  <defs
     id="defs2" />
  <sodipodi:namedview
     id="base"
     pagecolor="#ffffff"
     bordercolor="#666666"
     borderopacity="1.0"
     inkscape:pageopacity="0.0"
     inkscape:pageshadow="2"
     inkscape:zoom="0.41986485"
     inkscape:cx="8.3444426"
     inkscape:cy="-102.38109"
     inkscape:document-units="mm"
     inkscape:current-layer="layer1"
     inkscape:document-rotation="0"
     showgrid="false"
     inkscape:window-width="1280"
     inkscape:window-height="702"
     inkscape:window-x="0"
     inkscape:window-y="23"
     inkscape:window-maximized="1" />
  <metadata
     id="metadata5">
    <rdf:RDF>
      <cc:Work
         rdf:about="">
        <dc:format>image/svg+xml</dc:format>
        <dc:type
           rdf:resource="http://purl.org/dc/dcmitype/StillImage" />
        <dc:title></dc:title>
      </cc:Work>
    </rdf:RDF>
  </metadata>
  <g
     inkscape:label="Layer 1"
     inkscape:groupmode="layer"
     id="layer1"
     transform="translate(-116.53645,-165.97876)">
    <g
       transform="translate(111.12501)"
       id="g2264">
      <path
         style="fill:none;stroke:#1496ff;stroke-width:1.5;stroke-linecap:butt;stroke-linejoin:miter;stroke-miterlimit:4;stroke-dasharray:none;stroke-opacity:1"
         d="M 25.019821,189.3257 H 75.881469"
         id="path2244"
         inkscape:connector-curvature="0"
         sodipodi:nodetypes="cc" />
      <path
         inkscape:connector-curvature="0"
         id="path2246"
         d="M 26.304206,253.3837 H 74.853959"
         style="fill:none;stroke:#1496ff;stroke-width:1.5;stroke-linecap:butt;stroke-linejoin:miter;stroke-miterlimit:4;stroke-dasharray:none;stroke-opacity:1"
         sodipodi:nodetypes="cc" />
      <path
         style="fill:none;stroke:#1496ff;stroke-width:1.5;stroke-linecap:butt;stroke-linejoin:miter;stroke-miterlimit:4;stroke-dasharray:none;stroke-opacity:1"
         d="m 9.327078,213.78526 c 8.878723,15.37839 17.757445,30.75679 26.636167,46.13519"
         id="path2248"
         inkscape:connector-curvature="0"
         sodipodi:nodetypes="cc" />
      <path
         inkscape:connector-curvature="0"
         id="path2250"
         d="m 29.039181,183.76957 43.157068,74.75022"
         style="fill:none;stroke:#1496ff;stroke-width:1.5;stroke-linecap:butt;stroke-linejoin:miter;stroke-miterlimit:4;stroke-dasharray:none;stroke-opacity:1"
         sodipodi:nodetypes="cc" />
      <path
         style="fill:none;stroke:#1496ff;stroke-width:1.5;stroke-linecap:butt;stroke-linejoin:miter;stroke-miterlimit:4;stroke-dasharray:none;stroke-opacity:1"
         d="m 65.301987,182.42054 26.080022,45.1719"
         id="path2252"
         inkscape:connector-curvature="0"
         sodipodi:nodetypes="cc" />
      <path
         inkscape:connector-curvature="0"
         id="path2254"
         d="M 91.556189,214.91092 65.827075,259.47505"
         style="fill:none;stroke:#1496ff;stroke-width:1.5;stroke-linecap:butt;stroke-linejoin:miter;stroke-miterlimit:4;stroke-dasharray:none;stroke-opacity:1"
         sodipodi:nodetypes="cc" />
      <path
         style="fill:none;stroke:#1496ff;stroke-width:1.5;stroke-linecap:butt;stroke-linejoin:miter;stroke-miterlimit:4;stroke-dasharray:none;stroke-opacity:1"
         d="M 72.464449,183.82072 28.956486,259.17871"
         id="path2256"
         inkscape:connector-curvature="0"
         sodipodi:nodetypes="cc" />
      <path
         inkscape:connector-curvature="0"
         id="path2258"
         d="M 34.973499,184.59891 10.010398,227.83624"
         style="fill:none;stroke:#1496ff;stroke-width:1.5;stroke-linecap:butt;stroke-linejoin:miter;stroke-miterlimit:4;stroke-dasharray:none;stroke-opacity:1"
         sodipodi:nodetypes="cc" />
      <path
         style="fill:none;stroke:#1496ff;stroke-width:1.5;stroke-linecap:butt;stroke-linejoin:miter;stroke-miterlimit:4;stroke-dasharray:none;stroke-opacity:1"
         d="m 8.836569,221.40471 h 84.25566"
         id="path2260"
         inkscape:connector-curvature="0"
         sodipodi:nodetypes="cc" />
      <path
         sodipodi:nodetypes="cccc"
         style="fill:none;stroke:#1496ff;stroke-width:1.5;stroke-linecap:butt;stroke-linejoin:miter;stroke-miterlimit:4;stroke-dasharray:none;stroke-opacity:1"
         d="m 67.090739,193.13804 -6.95425,12.09864 m -6.682133,11.60388 -14.614784,25.17195"
         id="path2262"
         inkscape:connector-curvature="0" />
    </g>
    <path
       sodipodi:nodetypes="csscccccccccccccsscccccscccc"
       inkscape:connector-curvature="0"
       d="m 141.19563,238.0385 c 0.8451,-2.63919 11.23995,-9.26088 11.3114,-9.32212 3.14203,-2.69317 9.82459,-5.76619 13.17459,-8.23157 2.09495,-1.54176 1.18156,-3.35138 1.18156,-3.35138 -3.17273,-2.9366 -10.4878,-9.87382 -6.75705,-15.09117 1.76673,-2.62435 16.65424,-6.3092 19.55614,-8.96752 -0.57356,-6.77784 -4.45117,-7.43532 -6.32675,-10.37989 -2.09582,0.10329 -2.69552,0.0421 -4.72541,-0.71979 -1.24375,-0.71968 -2.9412,-2.30682 -2.97243,-3.5913 -0.0718,-1.22397 -0.48057,-1.92467 -0.61896,-3.14548 0.0932,-0.71024 -0.53612,-2.13576 -0.95502,-2.80008 -0.61477,-1.21517 -0.71159,-1.53761 -0.95523,-2.85052 -0.0387,-1.26279 0.12836,-2.63477 1.21664,-2.94784 0.75809,-1.52665 1.46045,0.0856 2.56102,-0.0349 1.94319,1.29506 2.74659,1.6622 2.74659,1.6622 0.51235,0.57559 1.49857,0.72267 2.0172,1.31505 0.55771,0.70643 2.20032,0.0179 2.81541,0.52816 2.65038,2.19872 1.09673,0.4665 3.75025,3.57934 0.8913,1.04559 -0.73598,3.9355 0.11643,5.19413 1.75579,3.50036 4.90487,7.18105 5.75348,8.31994 0,0 2.92103,2.12194 1.78948,6.65468 -2.51114,4.42114 -16.61387,8.71437 -18.3806,11.33872 -3.73075,5.21735 13.89977,9.52215 9.95215,14.5821 -2.7771,3.06632 -18.56938,12.34656 -18.56938,12.34656 -5.39766,3.77044 -9.91532,7.39945 -9.744,10.14602 0.83147,2.91568 1.8898,5.56151 5.60219,14.02427 1.9531,4.48057 -0.62659,14.40757 -5.25147,3.82139 -4.30898,-8.45552 -8.89688,-17.9935 -8.28823,-22.079 z"
       style="fill:#ff961e;fill-opacity:1;stroke:none;stroke-width:0.264583px;stroke-linecap:butt;stroke-linejoin:miter;stroke-opacity:1"
       id="path2266" />
    <rect
       y="203.85806"
       x="116.53645"
       height="33.39864"
       width="92.003799"
       id="rect2276"
       style="opacity:0.813505;fill:#ffffff;stroke-width:4.55397" />
    <text
       id="text2274"
       y="227.66585"
       x="119.21826"
       style="font-style:normal;font-weight:normal;font-size:24.6944px;line-height:1.25;font-family:sans-serif;fill:#000000;fill-opacity:1;stroke:none;stroke-width:0.264583"
       xml:space="preserve"><tspan
         style="font-style:normal;font-variant:normal;font-weight:normal;font-stretch:normal;font-family:Ayuthaya;-inkscape-font-specification:Ayuthaya;stroke-width:0.264583"
         y="227.66585"
         x="119.21826"
         id="tspan2272"
         sodipodi:role="line"><tspan
           id="tspan2268"
           style="font-style:normal;font-variant:normal;font-weight:normal;font-stretch:normal;font-family:Ayuthaya;-inkscape-font-specification:Ayuthaya;fill:#ff961e;fill-opacity:1">py</tspan><tspan
           id="tspan2270"
           style="font-style:normal;font-variant:normal;font-weight:normal;font-stretch:normal;font-family:Ayuthaya;-inkscape-font-specification:Ayuthaya;fill:#1496ff;fill-opacity:1"
           dy="0 0">icon</tspan></tspan></text>
  </g>
</svg>
